<svg height='100px' width='100px'  fill="#000000" xmlns="http://www.w3.org/2000/svg" data-name="Layer 1" viewBox="0 0 128 128" x="0px" y="0px"><title>Miscellaneous 45expandlines</title><path d="M105.07,58.71A2,2,0,0,0,107.8,58c2.25-3.73,1.6-8.42-1.48-10.66a2,2,0,0,0-2.77.45,2,2,0,0,0,.45,2.79c1.37,1,1.56,3.44.42,5.34A2,2,0,0,0,105.07,58.71Z"></path><path d="M110.54,40a8.62,8.62,0,0,0-7.76-1.53,12.15,12.15,0,0,0-6.38,4.88C89.66,17.57,71,0,49.45,0,28.32,0,10.24,17.16,3.11,41.24a23,23,0,0,1,5.7-4.44C16.36,17.35,31.74,4,49.45,4,70.56,4,88.78,22.84,93.77,49.82a23.28,23.28,0,0,1,.12,8.62,12.24,12.24,0,0,1-.55,2l-1.83.73A2,2,0,0,0,92.24,65a2,2,0,0,0,.73-.14l2.59-1a2,2,0,0,0,1.06-1c2-4.14,1.74-9.47,1.18-13.32,1.21-3.66,3.51-6.39,6.1-7.15a4.65,4.65,0,0,1,4.27.89c3,2.27,4.91,7.32,4.93,13.2,0,4.56-1,9-2.75,11.69s-3.7,5.71-3.72,10.32A8.9,8.9,0,0,1,102,86.77c-1.47.87-3,1.14-3.89.7a2.83,2.83,0,0,1-1.24-2.3l0-2.65A2,2,0,0,0,93,82c-6,25.11-23.5,42-43.52,42-22.53,0-41.28-21.6-45-49.87A23.13,23.13,0,0,1,0,68.58C1.83,101.74,23.3,128,49.45,128c19.93,0,37.5-15,45.36-38a5.55,5.55,0,0,0,1.52,1.11c2.12,1,5,.74,7.65-.83a12.89,12.89,0,0,0,6.62-11.76c0-3.42,1.5-5.72,3.09-8.17,2.14-3.31,3.41-8.49,3.39-13.87C117,49.32,114.54,43,110.54,40Z"></path><path d="M19.73,38A19,19,0,1,0,38.6,57,19,19,0,0,0,19.73,38ZM4.83,57a14.88,14.88,0,0,1,29.59-2.39A7.86,7.86,0,0,0,29.66,53a8,8,0,0,0-.95,15.94,14.74,14.74,0,0,1-9,3.06A15,15,0,0,1,4.83,57Zm24.83,8a4,4,0,1,1,4-4A4,4,0,0,1,29.66,65Z"></path><path d="M86.28,55A18.87,18.87,0,1,0,67.41,74,19,19,0,0,0,86.28,55Zm-8.94,7a4,4,0,1,1,4-4A4,4,0,0,1,77.34,62ZM52.51,55a14.88,14.88,0,0,1,29.36-3.57A7.86,7.86,0,0,0,77.34,50a8,8,0,0,0,0,16h.17a14.77,14.77,0,0,1-10.11,4A15,15,0,0,1,52.51,55Z"></path><path d="M34.14,94.51A2,2,0,0,0,34,96c1.89,5.6,8,9,14.87,9A20.88,20.88,0,0,0,55.47,104C64.61,101,70.35,92.19,68,84.79a2,2,0,0,0-1-1.17,2,2,0,0,0-1.52-.12L35.3,93.5A2,2,0,0,0,34.14,94.51ZM64.55,88c.14,4.83-4.2,10.18-10.32,12.21s-12.77.32-15.51-3.65Z"></path><ellipse cx="95.22" cy="75" rx="1.99" ry="2"></ellipse><path d="M127.61,15.25C121.56,7,107.15,4.4,99.06,10a2,2,0,0,0-.51,2.78,2,2,0,0,0,2.76.51c6.4-4.44,18.28-2.22,23.1,4.33a2,2,0,0,0,2.78.41A2,2,0,0,0,127.61,15.25Z"></path><path d="M101.74,18.61a2,2,0,0,0-.78,2.72,2,2,0,0,0,2.7.78c5-2.76,11.89-1.46,15.79,2.94a2,2,0,0,0,2.81.16,2,2,0,0,0,.16-2.82C117.33,16.64,108.25,15,101.74,18.61Z"></path><path d="M104.34,27.3a2,2,0,0,0-.94,2.67,2,2,0,0,0,2.65.94,7.94,7.94,0,0,1,8.4,1.52,2,2,0,0,0,2.78-2.86A11.86,11.86,0,0,0,104.34,27.3Z"></path></svg>